<?xml version="1.0" encoding="utf-8"?>
<!-- Generator: Adobe Illustrator 18.1.1, SVG Export Plug-In . SVG Version: 6.00 Build 0)  -->
<!DOCTYPE svg PUBLIC "-//W3C//DTD SVG 1.1//EN" "http://www.w3.org/Graphics/SVG/1.1/DTD/svg11.dtd">
<svg version="1.1" id="Layer_1" xmlns="http://www.w3.org/2000/svg" xmlns:xlink="http://www.w3.org/1999/xlink" x="0px" y="0px"
	 viewBox="0 0 100 100" enable-background="new 0 0 100 100" xml:space="preserve">
<g>
	<circle cx="26.1" cy="73" r="1"/>
	<path d="M50.8,38.3c-10,0-18.2,8.3-18.2,18.5c0,10.2,8.1,18.5,18.2,18.5c10,0,18.2-8.3,18.2-18.5C69,46.6,60.9,38.3,50.8,38.3z
		 M50.8,71.3c-8,0-14.5-6.5-14.5-14.5s6.5-14.5,14.5-14.5s14.5,6.5,14.5,14.5S58.9,71.3,50.8,71.3z"/>
	<path d="M98.6,24.8v-6.9H84.7v6.9h4.4v2.5H82v-9.4H41.8v5h-4.1V22h2.1v-4.2h-7V22h2.1v0.9h-4.9v3.4h-7.1v-1.6h3.7v-6.9H14.4v6.9
		h3.7v1.6H9.8v-1.6h3.7v-6.9H1.4v6.9h3.7v1.6H1.4v0.9v1.2V74c0,4.5,3.6,8.1,8.1,8.1h81c4.5,0,8.1-3.6,8.1-8.1V27.3h-4.9v-2.5H98.6z
		 M6,32.3c-1.1,0-2-0.9-2-2c0-1.1,0.9-2,2-2c1.1,0,2,0.9,2,2C8,31.4,7.1,32.3,6,32.3z M12.5,32.3c-1.1,0-2-0.9-2-2c0-1.1,0.9-2,2-2
		c1.1,0,2,0.9,2,2C14.5,31.4,13.6,32.3,12.5,32.3z M19,32.3c-1.1,0-2-0.9-2-2c0-1.1,0.9-2,2-2c1.1,0,2,0.9,2,2
		C21,31.4,20.1,32.3,19,32.3z M89,29.4c1.1,0,2,0.9,2,2c0,1.1-0.9,2-2,2c-1.1,0-2-0.9-2-2C87,30.3,87.9,29.4,89,29.4z M45.3,21.2
		h13.8v6.1H45.3V21.2z M50.8,80.4c-7.6,0-14.4-3.8-18.7-9.5L26.7,75c-0.3,0.2-0.7,0.2-1-0.1l-1.6-2.1c-0.2-0.3-0.2-0.7,0.1-1
		l5.8-4.4c-1.6-3.2-2.5-6.8-2.5-10.7c0-13,10.4-23.6,23.3-23.6s23.3,10.6,23.3,23.6C74.1,69.8,63.7,80.4,50.8,80.4z M77.5,27.3H63.7
		v-6.1h13.8V27.3z M94.5,71.5H81.6v-6.2h12.9V71.5z M95.1,29.4c1.1,0,2,0.9,2,2c0,1.1-0.9,2-2,2c-1.1,0-2-0.9-2-2
		C93.1,30.3,94,29.4,95.1,29.4z"/>
</g>
</svg>
