<?xml version="1.0" encoding="utf-8"?>
<!-- Generator: Adobe Illustrator 18.1.0, SVG Export Plug-In . SVG Version: 6.00 Build 0)  -->
<!DOCTYPE svg PUBLIC "-//W3C//DTD SVG 1.1//EN" "http://www.w3.org/Graphics/SVG/1.1/DTD/svg11.dtd">
<svg version="1.1" id="Layer_1" xmlns="http://www.w3.org/2000/svg" xmlns:xlink="http://www.w3.org/1999/xlink" x="0px" y="0px"
	 viewBox="0 0 200 200" enable-background="new 0 0 200 200" xml:space="preserve">
<path d="M184,2.2L74.2,118.4l-61.8,55.9c0,0,0.8,14.8,19.5,22.9c2.5,1.1,6.8-5.6,6.8-5.6l-3.2-3c9.9-8.6,37.3-22.2,56.4-51.8
	l10.9,13.4c0,0,48.4-33.3,71.2-81.2C196.8,21.2,184,2.2,184,2.2z M38.2,173.9c-1.6,1.6-4.2,1.6-5.7,0c-1.6-1.6-1.6-4.2,0-5.7
	c1.6-1.6,4.2-1.6,5.7,0C39.8,169.7,39.8,172.3,38.2,173.9z M55,160.9c-1.6,1.6-4.2,1.6-5.7,0c-1.6-1.6-1.6-4.2,0-5.7
	c1.6-1.6,4.2-1.6,5.7,0C56.6,156.7,56.6,159.3,55,160.9z M71.9,148c-1.6,1.6-4.2,1.6-5.7,0c-1.6-1.6-1.6-4.2,0-5.7
	c1.6-1.6,4.2-1.6,5.7,0C73.5,143.8,73.5,146.4,71.9,148z"/>
</svg>
