<?xml version="1.0" encoding="utf-8"?>
<!-- Generator: Adobe Illustrator 18.1.1, SVG Export Plug-In . SVG Version: 6.00 Build 0)  -->
<!DOCTYPE svg PUBLIC "-//W3C//DTD SVG 1.1//EN" "http://www.w3.org/Graphics/SVG/1.1/DTD/svg11.dtd">
<svg version="1.1" xmlns="http://www.w3.org/2000/svg" xmlns:xlink="http://www.w3.org/1999/xlink" x="0px" y="0px"
	 viewBox="0 0 100 100" enable-background="new 0 0 100 100" xml:space="preserve">
<g id="Layer_1">
	<rect x="3408.2" y="546.5" fill="#FCFBFA" width="1743.8" height="1418.8"/>
	<rect x="2020.8" y="740.2" fill="#FCFBFA" width="18.8" height="18.8"/>
	<g>
		<path d="M2579.5,677c-101.2,0-183.5-82.3-183.5-183.5S2478.3,310,2579.5,310S2763,392.3,2763,493.5S2680.7,677,2579.5,677z"/>
		<path fill="#FFFFFF" d="M2579.5,314c47.9,0,93,18.7,126.9,52.6c33.9,33.9,52.6,79,52.6,126.9s-18.7,93-52.6,126.9
			c-33.9,33.9-79,52.6-126.9,52.6s-93-18.7-126.9-52.6c-33.9-33.9-52.6-79-52.6-126.9s18.7-93,52.6-126.9
			C2486.5,332.7,2531.6,314,2579.5,314 M2579.5,306c-103.6,0-187.5,83.9-187.5,187.5S2475.9,681,2579.5,681S2767,597.1,2767,493.5
			S2683.1,306,2579.5,306L2579.5,306z"/>
		<path d="M2579.5,306c103.6,0,187.5,83.9,187.5,187.5S2683.1,681,2579.5,681S2392,597.1,2392,493.5S2475.9,306,2579.5,306
			 M2579.5,296c-26.7,0-52.5,5.2-76.9,15.5c-23.5,9.9-44.6,24.2-62.8,42.3c-18.1,18.1-32.4,39.3-42.3,62.8
			c-10.3,24.4-15.5,50.2-15.5,76.9s5.2,52.5,15.5,76.9c9.9,23.5,24.2,44.6,42.3,62.8c18.1,18.1,39.3,32.4,62.8,42.3
			c24.4,10.3,50.2,15.5,76.9,15.5s52.5-5.2,76.9-15.5c23.5-9.9,44.6-24.2,62.8-42.3c18.1-18.1,32.4-39.3,42.3-62.8
			c10.3-24.4,15.5-50.2,15.5-76.9s-5.2-52.5-15.5-76.9c-9.9-23.5-24.2-44.6-42.3-62.8c-18.1-18.1-39.3-32.4-62.8-42.3
			C2632,301.2,2606.2,296,2579.5,296L2579.5,296z"/>
	</g>
	<g>
		<defs>
			<circle id="SVGID_1_" cx="2579.5" cy="493.5" r="187.5"/>
		</defs>
		<clipPath id="SVGID_2_">
			<use xlink:href="#SVGID_1_"  overflow="visible"/>
		</clipPath>
		<g clip-path="url(#SVGID_2_)">
			<polyline fill="none" stroke="#FFFFFF" stroke-width="25" stroke-linecap="square" stroke-miterlimit="10" points="2770.1,565.2 
				2677.1,393.7 2577.6,555.8 2491.6,388.7 2395.8,552.4 			"/>
			<polyline fill="none" stroke="#FFFFFF" stroke-width="15" stroke-linecap="square" stroke-miterlimit="10" points="2768.3,634.1 
				2675.2,462.7 2575.7,624.8 2489.8,457.7 2394,621.4 			"/>
		</g>
	</g>
</g>
<g id="Layer_2">
	<g>
		<g>
			<path d="M81.4,17.9C72.9,9.5,61.7,4.8,49.7,4.8S26.4,9.5,17.9,17.9S4.8,37.7,4.8,49.7c0,12,4.7,23.3,13.1,31.7
				s19.7,13.1,31.7,13.1s23.3-4.7,31.7-13.1c8.5-8.5,13.1-19.7,13.1-31.7C94.5,37.7,89.9,26.4,81.4,17.9z M69.6,66.9h-4.2V33.8
				L49.7,59.4h-2.5L31.5,33.8v33.1h-4.2V26.5h4.3l16.9,27.6l16.9-27.6h4.3V66.9z M80.2,73.2h-9c0-0.5,0-0.9,0.1-1.4
				c0.1-0.4,0.3-0.9,0.5-1.3c0.3-0.4,0.6-0.8,1.1-1.2c0.5-0.4,1-0.7,1.7-1.1c0.4-0.2,0.8-0.4,1.2-0.5c0.4-0.2,0.8-0.4,1.2-0.6
				c0.4-0.2,0.7-0.5,0.9-0.7c0.2-0.3,0.4-0.6,0.4-1c0-0.2-0.1-0.5-0.2-0.7c-0.1-0.2-0.3-0.4-0.5-0.6c-0.2-0.2-0.5-0.3-0.9-0.4
				c-0.3-0.1-0.7-0.2-1.2-0.2c-0.5,0-0.9,0.1-1.2,0.2c-0.4,0.1-0.7,0.3-1,0.4c-0.3,0.2-0.5,0.3-0.7,0.5c-0.2,0.2-0.3,0.3-0.4,0.4
				l-0.9-0.9c0.1-0.1,0.2-0.2,0.5-0.4c0.2-0.2,0.5-0.4,0.9-0.6c0.4-0.2,0.8-0.4,1.4-0.5c0.5-0.2,1.1-0.2,1.8-0.2
				c0.6,0,1.2,0.1,1.7,0.2c0.5,0.2,0.9,0.4,1.3,0.6c0.3,0.3,0.6,0.6,0.8,0.9c0.2,0.4,0.3,0.7,0.3,1.1c0,0.5-0.1,1-0.4,1.4
				c-0.3,0.4-0.6,0.7-1,1c-0.4,0.3-0.8,0.5-1.2,0.7c-0.4,0.2-0.7,0.3-1,0.4c-0.6,0.2-1.1,0.5-1.6,0.7c-0.4,0.2-0.8,0.5-1,0.7
				c-0.3,0.2-0.5,0.5-0.6,0.8c-0.1,0.3-0.2,0.6-0.3,1h7.3V73.2z"/>
		</g>
		<g>
			<path d="M49.7-0.3c-27.6,0-50,22.4-50,50s22.4,50,50,50c27.6,0,50-22.4,50-50S77.3-0.3,49.7-0.3z M49.7,96.5
				c-25.9,0-46.9-21-46.9-46.9s21-46.9,46.9-46.9c25.9,0,46.9,21,46.9,46.9S75.6,96.5,49.7,96.5z"/>
		</g>
	</g>
	<g>
		<defs>
			<circle id="SVGID_3_" cx="49.7" cy="49.7" r="46.9"/>
		</defs>
		<clipPath id="SVGID_4_">
			<use xlink:href="#SVGID_3_"  overflow="visible"/>
		</clipPath>
	</g>
</g>
</svg>
