<?xml version="1.0" encoding="utf-8"?>
<!DOCTYPE svg PUBLIC "-//W3C//DTD SVG 1.1//EN" "http://www.w3.org/Graphics/SVG/1.1/DTD/svg11.dtd">
<svg version="1.1" id="Layer_1" xmlns="http://www.w3.org/2000/svg" xmlns:xlink="http://www.w3.org/1999/xlink" x="0px" y="0px"
	 viewBox="0 0 375 375" enable-background="new 0 0 375 375" xml:space="preserve">
<g>
	<g>
		<path d="M187.5,359.6c-94.9,0-172.1-77.2-172.1-172.1S92.6,15.4,187.5,15.4s172.1,77.2,172.1,172.1S282.4,359.6,187.5,359.6z"/>
		<path fill="#FFFFFF" d="M187.5,19.4c44.9,0,87.1,17.5,118.9,49.2c31.8,31.8,49.2,74,49.2,118.9s-17.5,87.1-49.2,118.9
			c-31.8,31.8-74,49.2-118.9,49.2s-87.1-17.5-118.9-49.2c-31.8-31.8-49.2-74-49.2-118.9s17.5-87.1,49.2-118.9
			C100.4,36.9,142.6,19.4,187.5,19.4 M187.5,11.4c-97.3,0-176.1,78.8-176.1,176.1s78.8,176.1,176.1,176.1s176.1-78.8,176.1-176.1
			S284.8,11.4,187.5,11.4L187.5,11.4z"/>
	</g>
	<path d="M187.5,11.4c97.3,0,176.1,78.8,176.1,176.1s-78.8,176.1-176.1,176.1S11.4,284.8,11.4,187.5S90.2,11.4,187.5,11.4 M187.5,2
		c-25,0-49.3,4.9-72.2,14.6c-22.1,9.3-41.9,22.7-59,39.8s-30.4,36.9-39.8,59C6.9,138.2,2,162.5,2,187.5s4.9,49.3,14.6,72.2
		c9.3,22.1,22.7,41.9,39.8,59c17,17,36.9,30.4,59,39.8c22.9,9.7,47.2,14.6,72.2,14.6s49.3-4.9,72.2-14.6c22.1-9.3,41.9-22.7,59-39.8
		c17-17,30.4-36.9,39.8-59c9.7-22.9,14.6-47.2,14.6-72.2s-4.9-49.3-14.6-72.2c-9.3-22.1-22.7-41.9-39.8-59c-17-17-36.9-30.4-59-39.8
		C236.8,6.9,212.5,2,187.5,2L187.5,2z"/>
</g>
<g>
	<defs>
		<circle id="SVGID_1_" cx="187.5" cy="187.5" r="176.1"/>
	</defs>
	<clipPath id="SVGID_2_">
		<use xlink:href="#SVGID_1_"  overflow="visible"/>
	</clipPath>
	<g clip-path="url(#SVGID_2_)">
		<polygon fill="#FFFFFF" points="187,270 102.3,115.7 21.2,263.4 0.6,252.1 102.3,66.9 187.5,222.1 276.6,67.9 384.3,254.2
			364,266 276.6,114.8 		"/>
		<polygon fill="#FFFFFF" points="187.1,325.2 102.3,170.8 19.3,321.8 7,315.1 102.3,141.5 187.4,296.5 276.6,142 377.9,317.3
			365.7,324.4 276.6,170.2 		"/>
	</g>
</g>
</svg>
